<svg id="Ebene_1" data-name="Ebene 1" xmlns="http://www.w3.org/2000/svg" viewBox="0 0 1083.82 196.08"><defs><style>.cls-1{fill:#82b91e;}.cls-2{fill:#1a171b;}</style></defs><title>farbig-positiv</title><path class="cls-1" d="M1083.06,101.36c6.51-53-29.33-94.73-83.58-94.73h-40.4a11.7,11.7,0,0,0-7.37,2.81,12.2,12.2,0,0,0-4.26,6.78c-1.13,5.29,2.25,9.6,7.55,9.6h40.4c46.84,0,76.85,38.11,66.9,84.95l-2.88,13.53.14-.26c-.84,5.09,2.49,9.16,7.65,9.16a12.58,12.58,0,0,0,11.23-8.11l.65-3,2.4-11.29C1082.16,107.59,1082.68,104.46,1083.06,101.36Z"/><path class="cls-1" d="M991.33,45H913.65A12.5,12.5,0,0,0,902,54.59c-1.11,5.24,2.19,9.5,7.39,9.59h77.84c25.69,0,42.14,20.9,36.68,46.59l-8.8,41.42c-1.13,5.3,2.25,9.59,7.55,9.59a12.5,12.5,0,0,0,11.63-9.59l4.87-22.92,3.94-18.5C1050.82,74.5,1027.59,45,991.33,45Z"/><path class="cls-1" d="M983.17,83.36H874.55c-7.53,0-15,3.08-21.07,8a35.06,35.06,0,0,0-12.15,19.36l-11.65,54.8c-3.21,15.07,6.5,27.41,21.57,27.41H959.87c7.54,0,15-3.08,21.07-8a35.09,35.09,0,0,0,12.16-19.36l11.65-54.8C1008,95.7,998.24,83.36,983.17,83.36Zm-13.35,80.25a10.09,10.09,0,0,1-9.25,7.64H859.79a6.06,6.06,0,0,1-6-7.64l10.82-50.88a10.08,10.08,0,0,1,9.25-7.63H974.63a6.05,6.05,0,0,1,6,7.63Z"/><path class="cls-2" d="M36.12,185.5c-1,4.9-4.39,7.74-8.51,7.74H5.68c-3.36,0-5.68-.78-5.68-4.39a34.12,34.12,0,0,1,.77-5.93L35.86,19.09c1-4.9,3.61-8.25,8.77-8.25h91.85c3.87,0,6.45,1.8,6.45,4.9,0,2.84-1,8.51-3.87,20.38-1,4.13-3.61,5.93-8.51,5.93H66.82L56.24,89.53h54.18c3.87,0,6.71.77,6.71,4.64,0,2.32-1.55,10.83-3.87,20.64-1,4.39-3.61,5.93-8.51,5.93H50.05Z"/><path class="cls-2" d="M225.75,193.24H208.2c-5.67,0-7-2.06-7-5.16a26.26,26.26,0,0,1,.51-4.39c-9.8,9.29-22.44,12.39-38.7,12.39-24.25,0-38.7-12.9-38.7-40.51,0-25.28,8.52-61.92,29.93-79.46,12.64-10.32,26.83-13.42,45.93-13.42,10.83,0,21.92,2.84,26.31,7.23,1.29-3.62,2.84-6.45,8.52-6.45H251.8c4.39,0,6.71,2.58,6.71,5.93a50.16,50.16,0,0,1-1.29,8.77l-22.7,106.55C233.23,191.18,231.68,193.24,225.75,193.24ZM219.3,94.69c-3.87-2.07-11.87-3.36-18.32-3.36-11.87,0-19.09,3.1-25,8.77-9.8,9.81-15.48,31-15.48,46.7,0,14.71,5.94,20.12,18.84,20.12,7.48,0,14.7-1,21.41-5.16a12.44,12.44,0,0,0,3.87-3.35,17.89,17.89,0,0,0,2.07-5.16Z"/><path class="cls-2" d="M364.55,148.61c0,15.22-4.39,27.34-13.16,35.6-9.54,8.51-24,12.12-43.86,12.12-14.7,0-35.08-2.06-44.89-7-2.32-1-3.87-2.84-3.87-5.16,0-3.87,2.58-12.13,5.16-18.32,1.29-3.1,3.36-4.64,7.23-4.64a32.87,32.87,0,0,1,7,1.29,105,105,0,0,0,32.77,4.9c9.28,0,14.19-1.29,16.51-3.87,2.58-2.58,2.84-4.9,2.84-7.74,0-4.64-2.07-7.22-12.9-10.58l-15-4.9c-16.77-5.16-27.6-13.93-27.6-31,0-14.45,4.38-27.86,16.77-37.15C301.08,65,314.76,61.4,334.36,61.4c10.32,0,23.48.78,33.29,3.62,3.35,1,4.9,3.09,4.9,5.67a102.51,102.51,0,0,1-3.87,19.09A7.39,7.39,0,0,1,362,94.17a52.78,52.78,0,0,1-6.71-.78A123.1,123.1,0,0,0,329,90.3c-7.74,0-12.65,1-15.74,2.84-2.84,1.8-4.13,5.16-4.13,9.28,0,4.39,2.84,7,13.42,10.58l15.22,5.16C355.52,124.1,364.55,133.64,364.55,148.61Z"/><path class="cls-2" d="M427.5,145.51c-1.54,7.48-2.06,11.87-2.06,15,0,4.65,3.87,7,9,7,4.38,0,7.48-.52,9.54-.52,3.1,0,4.91,1.81,5.16,5.42.26,4.64.26,9.55.26,13.42,0,4.64-3.61,7.48-8.25,8.51a113.23,113.23,0,0,1-21.93,2.06c-15.22,0-30.45-4.9-30.45-23.73a80.83,80.83,0,0,1,2.33-18.32l13.15-60.89H393.19c-3.87,0-5.68-1.8-5.68-4.64,0-2.32.52-5.93,3.1-17,1-4.12,3.61-7,8.26-7H411c0-.26,2.32-10.84,6.71-27.87,1.29-4.64,3.61-7.74,8-7.74h20.12c3.1,0,4.9,1.29,4.9,4.91a50.56,50.56,0,0,1-.77,6.19l-5.42,24.51h17.8c4.65,0,5.94,1.8,5.94,4.64,0,1.55-.52,5.94-3.1,18.32-1,4.39-3.87,5.67-8.26,5.67H438.85Z"/><path class="cls-2" d="M473.42,193c-4.64,0-6.19-2.32-6.19-5.42a21.91,21.91,0,0,1,.78-4.38L502.84,19.09c1-4.64,3.35-8.25,9-8.25H553.4c8,0,21.42.51,27.87,1.29,24.25,3.09,35.08,16.25,35.08,35.86,0,24.77-10.32,42.57-34.83,49.53,16.26,3.36,24.77,15.48,24.77,34.83,0,24-10.83,45.41-36.12,54.7C559.34,190.92,540,193,515.48,193Zm50.83-30.44c11.87,0,23.22-.78,28.64-2.58,11.35-4.13,16.51-15,16.51-26.83,0-8.52-3.36-14.19-9.55-16.77-5.42-2.32-12.64-2.84-22.7-2.84H518.32l-10.58,49Zm17-78.17c10.06,0,18.06-.78,22.7-2.33,11.35-3.61,15.74-13.67,15.74-23.73,0-10.58-5.16-14.71-11.35-16.52-4.65-1.28-13.16-1.54-21.42-1.54h-12.9l-9.54,44.12Z"/><path class="cls-2" d="M625.9,193.24c-3.61,0-5.16-1.55-5.16-4.9a51.43,51.43,0,0,1,.77-5.68L645.25,71.72c1-4.38,3.1-7.22,7.74-7.22h21.67c3.87,0,5.16,2.06,5.16,4.9a33.1,33.1,0,0,1-1,6.71L655.31,186c-1,5.16-3.35,7.22-7.74,7.22Zm57-156.09c-3.62,3.36-8.52,5.16-14.71,5.16-9.54,0-16.25-3.61-16.25-13.93,0-5.93,1.54-13.42,5.67-17.8,4.13-4.13,9-6.19,15.74-6.19,9.55,0,16.51,3.35,16.51,14.44C689.88,23.22,687.82,32.25,682.92,37.15Z"/><path class="cls-2" d="M713.62,193.24H692.21c-3.62,0-5.68-1.81-5.68-5.16a30.12,30.12,0,0,1,.77-5.68L724.71,7.22c1-4.64,3.1-7.22,7.74-7.22h21.42c3.87,0,5.67,1.29,5.67,4.39a35.33,35.33,0,0,1-.77,5.16L721.1,186C720.07,190.92,718,193.24,713.62,193.24Z"/><path class="cls-2" d="M779.66,193.24H758.25c-3.61,0-5.68-1.81-5.68-5.16a30,30,0,0,1,.78-5.68L790.76,7.22c1-4.64,3.09-7.22,7.74-7.22h21.41c3.87,0,5.68,1.29,5.68,4.39a35.36,35.36,0,0,1-.78,5.16L787.14,186C786.11,190.92,784.05,193.24,779.66,193.24Z"/></svg>